<svg width="16" height="22" viewBox="0 0 16 22" fill="none" xmlns="http://www.w3.org/2000/svg">
<path d="M15.5444 10.1552C15.5183 10.045 15.4655 9.94296 15.3905 9.85811C15.3156 9.77326 15.2208 9.70823 15.1147 9.6688L10.1638 7.81169L11.4237 1.5099C11.4522 1.36348 11.4323 1.21175 11.367 1.07761C11.3018 0.943478 11.1947 0.83421 11.0618 0.766297C10.929 0.698385 10.7777 0.675514 10.6308 0.701136C10.4838 0.726757 10.3492 0.799481 10.2472 0.908334L0.622172 11.2208C0.543999 11.3032 0.487447 11.4037 0.45757 11.5132C0.427693 11.6228 0.42542 11.738 0.450956 11.8487C0.476491 11.9593 0.529039 12.0619 0.603904 12.1473C0.678769 12.2327 0.773621 12.2982 0.879985 12.338L5.83256 14.1951L4.57616 20.4901C4.54763 20.6365 4.5675 20.7882 4.63277 20.9223C4.69803 21.0565 4.80516 21.1657 4.93798 21.2337C5.07079 21.3016 5.2221 21.3244 5.36905 21.2988C5.51601 21.2732 5.65064 21.2005 5.75264 21.0916L15.3776 10.7791C15.4544 10.6967 15.5097 10.5967 15.5388 10.488C15.5679 10.3792 15.5698 10.2649 15.5444 10.1552ZM6.39889 18.3906L7.29866 13.8892C7.33086 13.7295 7.30534 13.5637 7.22665 13.4211C7.14796 13.2785 7.02121 13.1685 6.86897 13.1106L2.32803 11.4047L9.60006 3.61365L8.70116 8.11505C8.66895 8.2747 8.69447 8.44059 8.77316 8.58318C8.85185 8.72577 8.97861 8.83579 9.13084 8.89365L13.6683 10.5952L6.39889 18.3906Z" fill="#D4B3FF"/>
</svg>
